<svg width="18" height="18" viewBox="0 0 18 18" fill="none" xmlns="http://www.w3.org/2000/svg">
<path fill-rule="evenodd" clip-rule="evenodd" d="M18 2C18 0.895431 17.1046 0 16 0H2C0.895431 0 0 0.89543 0 2V16C0 17.1046 0.89543 18 2 18H16C17.1046 18 18 17.1046 18 16V2ZM2.76034 9.96223L6.31034 13.3432C6.69655 13.711 7.30345 13.711 7.68966 13.3432L15.2397 6.15271C15.6534 5.75862 15.6534 5.09852 15.2397 4.70443L15.1897 4.65681C14.8034 4.289 14.1966 4.289 13.8103 4.65681L7.68965 10.486C7.30345 10.8539 6.69655 10.8539 6.31034 10.486L4.18966 8.46634C3.80345 8.09852 3.19655 8.09852 2.81034 8.46634L2.76034 8.51396C2.34655 8.90805 2.34655 9.56814 2.76034 9.96223Z"/>
</svg>
